<svg width="15" height="12" viewBox="0 0 15 12" fill="none" xmlns="http://www.w3.org/2000/svg">
<path d="M1.45 5.29999H10.45L7.61 2.45996C7.48903 2.32148 7.42236 2.14384 7.42236 1.95996C7.42236 1.77608 7.48903 1.59844 7.61 1.45996L8.06 1.01996C8.19538 0.892694 8.37419 0.821899 8.56 0.821899C8.7458 0.821899 8.92462 0.892694 9.06 1.01996L14 5.79999C14.121 5.93847 14.1876 6.11611 14.1876 6.29999C14.1876 6.48387 14.121 6.66151 14 6.79999L9.13 11.67C8.9925 11.793 8.81449 11.861 8.63 11.861C8.44552 11.861 8.26751 11.793 8.13 11.67L7.67999 11.22C7.55491 11.0835 7.48553 10.9051 7.48553 10.72C7.48553 10.5348 7.55491 10.3564 7.67999 10.22L10.55 7.35999H1.5C1.30099 7.35483 1.11171 7.2728 0.971878 7.1311C0.832043 6.9894 0.752519 6.79904 0.75 6.59998V5.97998C0.766354 5.80176 0.845902 5.63526 0.974274 5.51056C1.10265 5.38585 1.27138 5.31117 1.45 5.29999V5.29999Z" fill="white"/>
</svg>
