<svg width="13" height="13" viewBox="0 0 13 13" fill="none" xmlns="http://www.w3.org/2000/svg">
<path d="M5.15885 1.52998C5.22891 1.33693 5.35673 1.17013 5.52491 1.05226C5.69308 0.934388 5.89348 0.871155 6.09885 0.871155C6.30422 0.871155 6.50461 0.934388 6.67279 1.05226C6.84097 1.17013 6.96878 1.33693 7.03885 1.52998L7.88885 3.83998C7.95721 4.0236 8.078 4.1831 8.23622 4.29866C8.39445 4.41422 8.58314 4.48075 8.77885 4.48999L11.2388 4.60999C11.4397 4.62128 11.6325 4.69289 11.792 4.81546C11.9515 4.93803 12.0703 5.10585 12.133 5.29701C12.1956 5.48818 12.1992 5.6938 12.1431 5.88701C12.0871 6.08021 11.9741 6.25202 11.8189 6.37999L9.87885 7.99998C9.73449 8.11832 9.62614 8.2747 9.56605 8.45143C9.50596 8.62816 9.49654 8.81818 9.53885 8.99998L10.1988 11.41C10.2697 11.6646 10.2369 11.9369 10.1076 12.1673C9.97831 12.3978 9.76304 12.5677 9.50885 12.64C9.36935 12.6798 9.22286 12.6888 9.07953 12.6664C8.93621 12.6439 8.79949 12.5906 8.67885 12.51L6.67885 11.15C6.51452 11.0403 6.3214 10.9818 6.12385 10.9818C5.9263 10.9818 5.73318 11.0403 5.56885 11.15L3.56885 12.51C3.45991 12.5837 3.33749 12.6352 3.20862 12.6615C3.07975 12.6878 2.94695 12.6885 2.81783 12.6634C2.68871 12.6383 2.56581 12.588 2.45616 12.5153C2.34652 12.4427 2.25228 12.3491 2.17885 12.24C2.09659 12.1201 2.04145 11.9838 2.01727 11.8404C1.99309 11.6971 2.00046 11.5502 2.03885 11.41L2.69885 8.99998C2.7423 8.8191 2.73443 8.62969 2.67614 8.45303C2.61784 8.27638 2.51142 8.11948 2.36885 7.99998L0.368846 6.42998C0.164304 6.26354 0.0337873 6.02306 0.00569444 5.76086C-0.0223984 5.49866 0.0542053 5.23597 0.218844 5.02998C0.308649 4.91908 0.421156 4.82868 0.548793 4.76486C0.67643 4.70104 0.816246 4.66529 0.95885 4.65999L3.41885 4.53998C3.61456 4.53074 3.80325 4.46421 3.96147 4.34865C4.1197 4.23309 4.24049 4.0736 4.30885 3.88998L5.15885 1.52998Z" fill="#F2A902"/>
</svg>
